<?xml version="1.0" encoding="UTF-8" standalone="no"?>
<!-- Created with Inkscape (http://www.inkscape.org/) -->

<svg
   xmlns:dc="http://purl.org/dc/elements/1.1/"
   xmlns:cc="http://creativecommons.org/ns#"
   xmlns:rdf="http://www.w3.org/1999/02/22-rdf-syntax-ns#"
   xmlns:svg="http://www.w3.org/2000/svg"
   xmlns="http://www.w3.org/2000/svg"
   xmlns:xlink="http://www.w3.org/1999/xlink"
   xmlns:sodipodi="http://sodipodi.sourceforge.net/DTD/sodipodi-0.dtd"
   xmlns:inkscape="http://www.inkscape.org/namespaces/inkscape"
   width="150"
   height="57"
   viewBox="0 0 39.687499 15.08125"
   version="1.1"
   id="svg4545"
   enable-background="new"
   inkscape:version="0.92.4 (5da689c313, 2019-01-14)"
   sodipodi:docname="nsis_header.svg">
  <defs
     id="defs4539">
    <linearGradient
       inkscape:collect="always"
       id="linearGradient5449">
      <stop
         style="stop-color:#37729e;stop-opacity:1"
         offset="0"
         id="stop5445" />
      <stop
         style="stop-color:#396ea7;stop-opacity:0"
         offset="1"
         id="stop5447" />
    </linearGradient>
    <linearGradient
       id="linearGradient3106"
       inkscape:collect="always">
      <stop
         id="stop3108"
         offset="0"
         style="stop-color:black;stop-opacity:1;" />
      <stop
         id="stop3110"
         offset="1"
         style="stop-color:black;stop-opacity:0;" />
    </linearGradient>
    <linearGradient
       id="linearGradient3103"
       inkscape:collect="always">
      <stop
         id="stop3105"
         offset="0"
         style="stop-color:#73d216;stop-opacity:1" />
      <stop
         id="stop3107"
         offset="1"
         style="stop-color:#4e9a06;stop-opacity:1" />
    </linearGradient>
    <linearGradient
       id="linearGradient3223"
       inkscape:collect="always">
      <stop
         id="stop3225"
         offset="0"
         style="stop-color:#729fcf;stop-opacity:1;" />
      <stop
         id="stop3227"
         offset="1"
         style="stop-color:#396ea7;stop-opacity:1" />
    </linearGradient>
    <linearGradient
       inkscape:collect="always"
       id="linearGradient3128">
      <stop
         style="stop-color:#fef291;stop-opacity:1"
         offset="0"
         id="stop3130" />
      <stop
         style="stop-color:#edd400;stop-opacity:1"
         offset="1"
         id="stop3132" />
    </linearGradient>
    <linearGradient
       id="linearGradient3112"
       inkscape:collect="always">
      <stop
         id="stop3114"
         offset="0"
         style="stop-color:white;stop-opacity:1;" />
      <stop
         id="stop3116"
         offset="1"
         style="stop-color:white;stop-opacity:0;" />
    </linearGradient>
    <linearGradient
       id="linearGradient3080"
       inkscape:collect="always">
      <stop
         id="stop3082"
         offset="0"
         style="stop-color:#ad7fa8;stop-opacity:1" />
      <stop
         id="stop3084"
         offset="1"
         style="stop-color:#75507b;stop-opacity:1" />
    </linearGradient>
    <linearGradient
       gradientTransform="matrix(0.993546,0,0,0.998054,0.154891,5.053486)"
       gradientUnits="userSpaceOnUse"
       y2="31.587952"
       x2="32.927006"
       y1="2"
       x1="16"
       id="linearGradient3957"
       xlink:href="#linearGradient3112"
       inkscape:collect="always" />
    <linearGradient
       y2="3.3976703"
       x2="8.4828358"
       y1="53.76825"
       x1="18.107143"
       gradientTransform="translate(-1,3)"
       gradientUnits="userSpaceOnUse"
       id="linearGradient3092"
       xlink:href="#linearGradient3112"
       inkscape:collect="always" />
    <radialGradient
       gradientUnits="userSpaceOnUse"
       gradientTransform="matrix(1,0,0,0.119874,0,37.62294)"
       r="16.010918"
       fy="42.747208"
       fx="23.081985"
       cy="42.747208"
       cx="23.081985"
       id="radialGradient3102"
       xlink:href="#linearGradient3106"
       inkscape:collect="always" />
    <radialGradient
       gradientUnits="userSpaceOnUse"
       gradientTransform="matrix(2.13216,1.122823e-2,-1.1822e-2,2.244913,-18.75993,-30.16344)"
       r="17.031612"
       fy="24.508204"
       fx="17.309582"
       cy="24.508204"
       cx="17.309582"
       id="radialGradient3104"
       xlink:href="#linearGradient3080"
       inkscape:collect="always" />
    <linearGradient
       gradientUnits="userSpaceOnUse"
       y2="22.012075"
       x2="24.832115"
       y1="2.5335035"
       x1="24.260687"
       id="linearGradient3118"
       xlink:href="#linearGradient3112"
       inkscape:collect="always" />
    <radialGradient
       r="9"
       fy="22.17857"
       fx="21.142859"
       cy="22.17857"
       cx="21.142859"
       gradientTransform="matrix(1.705883,0,0,1.667238,-17.94118,-19.21085)"
       gradientUnits="userSpaceOnUse"
       id="radialGradient3120"
       xlink:href="#linearGradient3128"
       inkscape:collect="always" />
    <radialGradient
       r="9"
       fy="22.17857"
       fx="21.142859"
       cy="22.17857"
       cx="21.142859"
       gradientTransform="matrix(0.999999,0,0,1.000342,1.223408e-6,-8.326495)"
       gradientUnits="userSpaceOnUse"
       id="radialGradient3221"
       xlink:href="#linearGradient3128"
       inkscape:collect="always" />
    <linearGradient
       gradientTransform="matrix(0.679906,0,0,0.709362,7.683475,1.608315)"
       gradientUnits="userSpaceOnUse"
       y2="38.499996"
       x2="30.00001"
       y1="31.785711"
       x1="24.000008"
       id="linearGradient3229"
       xlink:href="#linearGradient3223"
       inkscape:collect="always" />
    <radialGradient
       gradientUnits="userSpaceOnUse"
       gradientTransform="matrix(1.989063,0,0,1.427178,-17.28077,-7.054682)"
       r="19"
       fy="24.907877"
       fx="15.269456"
       cy="24.907877"
       cx="15.269456"
       id="radialGradient3109"
       xlink:href="#linearGradient3103"
       inkscape:collect="always" />
    <linearGradient
       y2="42.405006"
       x2="38.465416"
       y1="2"
       x1="16"
       gradientTransform="matrix(1.258493,0,0,1.2607,-6.203794,1.409664)"
       gradientUnits="userSpaceOnUse"
       id="linearGradient3111"
       xlink:href="#linearGradient3112"
       inkscape:collect="always" />
    <linearGradient
       y2="42.405006"
       x2="38.465416"
       y1="2"
       x1="16"
       gradientTransform="matrix(1.258493,0,0,1.260118,-6.203794,-0.58013)"
       gradientUnits="userSpaceOnUse"
       id="linearGradient3115"
       xlink:href="#linearGradient3112"
       inkscape:collect="always" />
    <radialGradient
       r="19"
       fy="23.537582"
       fx="16.488304"
       cy="23.537582"
       cx="16.488304"
       gradientTransform="matrix(1.989063,0,0,1.76923,-17.28077,-17.61162)"
       gradientUnits="userSpaceOnUse"
       id="radialGradient3117"
       xlink:href="#linearGradient3103"
       inkscape:collect="always" />
    <radialGradient
       gradientUnits="userSpaceOnUse"
       gradientTransform="matrix(1,0,0,0.16707,0,37.07785)"
       r="20.85965"
       fy="44.514973"
       fx="23.991123"
       cy="44.514973"
       cx="23.991123"
       id="radialGradient3127"
       xlink:href="#linearGradient3106"
       inkscape:collect="always" />
    <linearGradient
       gradientTransform="translate(1)"
       gradientUnits="userSpaceOnUse"
       y2="42.285942"
       x2="15.571428"
       y1="29.99917"
       x1="15.571428"
       id="linearGradient3113"
       xlink:href="#linearGradient3106"
       inkscape:collect="always" />
    <linearGradient
       gradientTransform="translate(-1)"
       gradientUnits="userSpaceOnUse"
       y2="42.285942"
       x2="15.571428"
       y1="29.99917"
       x1="15.571428"
       id="linearGradient3116"
       xlink:href="#linearGradient3106"
       inkscape:collect="always" />
    <linearGradient
       y2="24.431168"
       x2="27.055439"
       y1="3.860764"
       x1="17.725422"
       gradientTransform="matrix(0.993546,0,0,0.998054,0.154891,5.053486)"
       gradientUnits="userSpaceOnUse"
       id="linearGradient3122"
       xlink:href="#linearGradient3112"
       inkscape:collect="always" />
    <linearGradient
       inkscape:collect="always"
       xlink:href="#linearGradient5449"
       id="linearGradient5223"
       x1="-0.13229166"
       y1="7.4640684"
       x2="39.688183"
       y2="7.4640684"
       gradientUnits="userSpaceOnUse"
       gradientTransform="matrix(1.0033271,0,0,1.0076271,0,0.01962691)" />
    <filter
       inkscape:collect="always"
       style="color-interpolation-filters:sRGB"
       id="filter5357">
      <feBlend
         inkscape:collect="always"
         mode="multiply"
         in2="BackgroundImage"
         id="feBlend5359" />
    </filter>
  </defs>
  <sodipodi:namedview
     id="base"
     pagecolor="#ffffff"
     bordercolor="#666666"
     borderopacity="1.0"
     inkscape:pageopacity="0.0"
     inkscape:pageshadow="2"
     inkscape:zoom="3.7074044"
     inkscape:cx="82.21365"
     inkscape:cy="40.056666"
     inkscape:document-units="mm"
     inkscape:current-layer="layer2"
     showgrid="false"
     units="px"
     inkscape:window-width="1920"
     inkscape:window-height="1017"
     inkscape:window-x="-8"
     inkscape:window-y="-8"
     inkscape:window-maximized="1" />
  <metadata
     id="metadata4542">
    <rdf:RDF>
      <cc:Work
         rdf:about="">
        <dc:format>image/svg+xml</dc:format>
        <dc:type
           rdf:resource="http://purl.org/dc/dcmitype/StillImage" />
        <dc:title />
      </cc:Work>
    </rdf:RDF>
  </metadata>
  <g
     inkscape:groupmode="layer"
     id="layer3"
     inkscape:label="background"
     style="display:inline;filter:url(#filter5357)">
    <rect
       style="opacity:1;fill:url(#linearGradient5223);fill-opacity:1;fill-rule:nonzero;stroke:none;stroke-width:0.26602992;stroke-miterlimit:4;stroke-dasharray:none;stroke-opacity:1"
       id="rect5215"
       width="39.6875"
       height="15.08125"
       x="0"
       y="7.4506273e-10" />
  </g>
  <g
     inkscape:groupmode="layer"
     id="layer2"
     inkscape:label="logo"
     style="display:inline">
    <g
       inkscape:label="Layer 1"
       id="layer1-9"
       transform="matrix(0.35601782,0,0,0.33362648,-0.92725068,-1.2923699)">
      <ellipse
         transform="matrix(0.91085,0,0,1.004296,2.147699,-1.206229)"
         id="path3119"
         style="color:#000000;display:inline;overflow:visible;visibility:visible;opacity:0.2;fill:url(#radialGradient3127);fill-opacity:1;fill-rule:nonzero;stroke:none;stroke-width:1.00000072;stroke-linecap:butt;stroke-linejoin:miter;stroke-miterlimit:4;stroke-dasharray:none;stroke-dashoffset:0;stroke-opacity:1;marker:none;marker-start:none;marker-mid:none;marker-end:none;enable-background:accumulate"
         cx="23.991123"
         cy="44.514973"
         rx="20.85965"
         ry="3.4850264" />
      <path
         sodipodi:nodetypes="csccccccsc"
         id="rect2193"
         d="m 24,20.499994 c -9.659998,0 -18.5000003,5.114081 -18.5000001,8.425151 0,1.540746 6.2829851,0.658209 6.5000001,2.009791 l 1.5625,10.559168 c 0,1.010151 0.531707,1.80127 1.21875,1.801269 6.262501,1.617995 12.413095,1.594266 18.40625,0 0.687044,0 1.249999,-0.791119 1.25,-1.801269 L 36,30.934936 c 0.288444,-1.138625 6.500001,-0.469045 6.5,-2.009791 0,-3.31107 -8.840002,-8.42515 -18.5,-8.425151 z"
         style="color:#000000;display:inline;overflow:visible;visibility:visible;fill:url(#radialGradient3117);fill-opacity:1;fill-rule:nonzero;stroke:#4e9a06;stroke-width:1.00000012;stroke-linecap:butt;stroke-linejoin:miter;stroke-miterlimit:4;stroke-dashoffset:0;stroke-opacity:1;marker:none;marker-start:none;marker-mid:none;marker-end:none;enable-background:accumulate"
         inkscape:connector-curvature="0" />
      <path
         sodipodi:nodetypes="cccc"
         id="path2203"
         d="m 12,30 c 1.08167,0.07502 3.108027,0.873469 4,0 -1.85465,1.181252 -0.873011,8.878321 -1.785714,12.785714 C 13.476214,38.523473 12.935303,31.500991 12,30 Z"
         style="opacity:0.13777777;fill:url(#linearGradient3116);fill-opacity:1;fill-rule:evenodd;stroke:none;stroke-width:1px;stroke-linecap:butt;stroke-linejoin:miter;stroke-opacity:1"
         inkscape:connector-curvature="0" />
      <path
         style="opacity:0.13777777;fill:url(#linearGradient3113);fill-opacity:1;fill-rule:evenodd;stroke:none;stroke-width:1px;stroke-linecap:butt;stroke-linejoin:miter;stroke-opacity:1"
         d="m 36,30 c -1.08167,0.07502 -3.108027,0.873469 -4,0 1.85465,1.181252 0.873011,8.878321 1.785714,12.785714 C 34.523786,38.523473 35.064697,31.500991 36,30 Z"
         id="path3092"
         sodipodi:nodetypes="cccc"
         inkscape:connector-curvature="0" />
      <path
         style="color:#000000;display:inline;overflow:visible;visibility:visible;opacity:1;fill:none;fill-opacity:1;fill-rule:nonzero;stroke:url(#linearGradient3115);stroke-width:1.00000072;stroke-linecap:butt;stroke-linejoin:miter;stroke-miterlimit:4;stroke-dasharray:none;stroke-dashoffset:0;stroke-opacity:1;marker:none;marker-start:none;marker-mid:none;marker-end:none;enable-background:accumulate"
         d="m 23.999995,21.49999 c -9.137834,0 -17.9081884,5.449846 -17.2857108,7.142358 0.085908,0.233583 5.9433628,0.279101 6.1486478,1.585243 l 1.692325,10.236417 c 0,0.976188 0.0744,2.026293 0.7243,2.026292 6.077911,1.370063 11.872117,1.322258 17.411314,0 0.649907,0 0.753861,-0.764523 0.753862,-1.74071 L 35.06563,30.298987 c 0.272852,-1.100344 5.937621,-0.861453 6.077218,-1.942221 0.261896,-2.027606 -8.005019,-6.856775 -17.142853,-6.856776 z"
         id="path2200"
         sodipodi:nodetypes="csccccccsc"
         inkscape:connector-curvature="0" />
      <ellipse
         transform="matrix(0.809624,0,0,1.685019,4.760218,-20.48733)"
         id="path2201"
         style="color:#000000;display:inline;overflow:visible;visibility:visible;opacity:1;fill:#000000;fill-opacity:0.05936076;fill-rule:nonzero;stroke:#ffffff;stroke-width:0.85616213;stroke-linecap:butt;stroke-linejoin:miter;stroke-miterlimit:4;stroke-dasharray:none;stroke-dashoffset:0;stroke-opacity:0.42352941;marker:none;marker-start:none;marker-mid:none;marker-end:none;enable-background:accumulate"
         cx="23.763838"
         cy="27.291872"
         rx="6.7932758"
         ry="2.3738585" />
      <path
         sodipodi:nodetypes="csccccccsc"
         id="path2159"
         d="m 23.999992,6.5000004 c -4.694677,0 -8.499997,3.8093056 -8.499997,8.5029116 0,2.999773 1.551932,5.639273 3.899709,7.153253 1.532664,1.747842 0.850142,1.176487 1.100292,3.319084 0,0.567923 0.463522,1.031603 1.031245,1.031603 1.819981,1.396743 3.442269,1.249612 4.937499,0 0.567726,0 1.03125,-0.463681 1.03125,-1.031603 0.297753,-2.097288 -0.132842,-1.831066 0.961251,-3.231317 2.425347,-1.49836 4.038748,-4.182417 4.038748,-7.24102 0,-4.693606 -3.805321,-8.5029116 -8.499997,-8.5029116 z"
         style="opacity:1;fill:url(#radialGradient3221);fill-opacity:1;stroke:#c4a000;stroke-width:1.00000036;stroke-miterlimit:4;stroke-dasharray:none;stroke-dashoffset:0;stroke-opacity:1"
         inkscape:connector-curvature="0" />
      <ellipse
         transform="matrix(0.457973,0,-0.285667,0.588089,13.52477,5.593519)"
         id="path3110"
         style="color:#000000;display:inline;overflow:visible;visibility:visible;opacity:1;fill:url(#linearGradient3118);fill-opacity:1;fill-rule:nonzero;stroke:none;stroke-width:0.90256411;stroke-linecap:butt;stroke-linejoin:miter;stroke-miterlimit:4;stroke-dasharray:none;stroke-dashoffset:0;stroke-opacity:1;marker:none;marker-start:none;marker-mid:none;marker-end:none;enable-background:accumulate"
         cx="22.930462"
         cy="12.594153"
         rx="4.2426405"
         ry="5.1012702" />
      <path
         style="color:#000000;display:inline;overflow:visible;visibility:visible;opacity:1;fill:none;fill-opacity:1;fill-rule:nonzero;stroke:url(#linearGradient3957);stroke-width:1.00000036;stroke-linecap:butt;stroke-linejoin:miter;stroke-miterlimit:4;stroke-dasharray:none;stroke-dashoffset:0;stroke-opacity:1;marker:none;marker-start:none;marker-mid:none;marker-end:none;enable-background:accumulate"
         d="m 23.999997,7.4999981 c -4.142363,0 -7.500001,3.4862079 -7.500001,7.7817099 0,2.745338 1.496903,4.745313 3.81643,6.546015 1.352348,1.599597 0.854299,1.381292 0.956399,3.055127 0,0.519751 0.171905,0.679377 0.672841,0.679377 1.403466,1.273464 2.842636,1.240539 4.19131,-0.04152 0.500939,0 0.547623,-0.232699 0.547623,-0.75245 0.174712,-2.16848 0.27213,-1.907786 1.237505,-3.189268 2.140015,-1.371271 3.577894,-3.498106 3.577894,-6.297284 0,-4.295503 -3.357639,-7.7817099 -7.500001,-7.7817099 z"
         id="path3941"
         sodipodi:nodetypes="csccccccsc"
         inkscape:connector-curvature="0" />
      <path
         sodipodi:nodetypes="ccccccccc"
         id="rect3216"
         d="m 20.009177,22.868465 c 0.314701,0.54856 0.317852,1.114589 0.489098,2.597918 0,0.570506 0.455085,1.035939 1.019033,1.035939 1.80786,1.403093 3.427906,1.255294 4.913177,0 0.563946,0 1.09046,-0.447577 1.09046,-1.018082 0.194311,-1.384115 0.270949,-2.269972 0.475324,-2.752504 l -1.386487,0.806554 h -5.235111 z"
         style="color:#000000;display:inline;overflow:visible;visibility:visible;opacity:1;fill:url(#linearGradient3229);fill-opacity:1;fill-rule:nonzero;stroke:#3465a4;stroke-width:1;stroke-linecap:butt;stroke-linejoin:miter;stroke-miterlimit:4;stroke-dasharray:none;stroke-dashoffset:0;stroke-opacity:1;marker:none;marker-start:none;marker-mid:none;marker-end:none;enable-background:accumulate"
         inkscape:connector-curvature="0" />
      <path
         style="color:#000000;display:inline;overflow:visible;visibility:visible;opacity:1;fill:none;fill-opacity:1;fill-rule:nonzero;stroke:url(#linearGradient3122);stroke-width:1.00000036;stroke-linecap:butt;stroke-linejoin:miter;stroke-miterlimit:4;stroke-dasharray:none;stroke-dashoffset:0;stroke-opacity:1;marker:none;marker-start:none;marker-mid:none;marker-end:none;enable-background:accumulate"
         d="m 21.46429,24.50002 0.0537,1.009787 0.499938,-8.15e-4 c 1.816785,1.599209 2.931067,0.871375 4.000047,-0.0065 l 0.388976,-6.34e-4 0.128761,-1.001817 z"
         id="path3118"
         sodipodi:nodetypes="ccccccc"
         inkscape:connector-curvature="0" />
    </g>
    <path
       style="fill:none;stroke:#000000;stroke-width:0.26458332px;stroke-linecap:butt;stroke-linejoin:miter;stroke-opacity:1"
       d="m 6.5656896,10.870645 c -0.1427324,-0.04758 -0.2835328,-0.1014 -0.4281972,-0.142733 -0.022873,-0.0065 -0.048288,-0.0058 -0.071366,0 -0.07298,0.01825 -0.1539173,0.02623 -0.2140987,0.07137 -0.1083558,0.08127 -0.071366,0.330287 -0.071366,0.428198 0,0.02379 -0.022569,0.06384 0,0.07137 0.1372756,0.04576 0.3054905,-0.0053 0.4281971,0.07137 0.6460728,0.403795 -0.4456567,0.208279 0.4281969,0.499563 0.1128401,0.03761 0.238615,-0.01313 0.3568311,0 0.097484,0.01083 0.1887159,0.05524 0.2854648,0.07137 0.09386,0.01564 0.1903098,0 0.2854648,0 0.095155,0 0.1963684,0.03341 0.2854648,0 0.1113702,-0.04176 0.1925851,-0.139796 0.2854647,-0.214099 0.1853642,-0.148291 0.1910819,-0.435145 0.2140985,-0.642296 0.00257,-0.02312 0.01256,-0.480723 0,-0.499563 C 8.2838662,10.486213 8.1484855,10.455187 8.0643795,10.371081 7.9802738,10.286975 7.9405897,10.163024 7.8502811,10.085617 7.7556819,10.004532 7.2957861,9.8391743 7.2079852,9.8001517 7.110768,9.7569439 7.0248136,9.686646 6.9225204,9.6574193 c -0.1372404,-0.039212 -0.2882365,0.027992 -0.4281972,0 -0.05216,-0.010433 -0.090572,-0.060934 -0.1427323,-0.071366 -0.093681,-0.018735 -0.3147325,0 -0.4281969,0"
       id="path61"
       inkscape:connector-curvature="0" />
    <path
       style="fill:none;stroke:#000000;stroke-width:0.26458332px;stroke-linecap:butt;stroke-linejoin:miter;stroke-opacity:1"
       d="m 6.5656896,3.8053917 c 0.071534,0.3576714 0.032893,0.4486219 0.3568308,0.7136619 0.1484381,0.1214491 0.3377568,0.1824969 0.4995635,0.2854648 0.1003483,0.063858 0.1790782,0.1609053 0.2854648,0.2140985 0.042554,0.021278 0.096079,-0.00933 0.1427324,0 0.073765,0.014753 0.1403328,0.056613 0.2140984,0.071366 0.046654,0.00933 0.095155,0 0.1427324,0 0.047578,0 0.097597,0.015044 0.1427324,0 C 8.4507715,5.0563406 8.5672021,5.028979 8.6353091,4.9472508 8.6981005,4.8719009 8.6784912,4.755733 8.7066754,4.661786 8.7499078,4.5176781 8.8167698,4.3804593 8.8494078,4.2335889 8.8804103,4.0940765 8.7982794,3.6452608 8.7780415,3.591293 8.7544168,3.5282925 8.6912933,3.4858835 8.6353091,3.4485606 8.1987445,3.1575176 8.4561843,3.4364295 7.8502811,3.2344622 7.7186882,3.1905979 7.6286087,3.0515541 7.49345,3.0203634 c -0.1854362,-0.042793 -0.3806196,0 -0.5709296,0 -0.2378871,0 -0.4757745,0 -0.7136617,0 -0.1895797,0 -0.3304688,-0.030091 -0.4995635,0.071366 -0.057696,0.034617 -0.088904,0.1023614 -0.1427323,0.1427324 -0.085109,0.063832 -0.2102382,0.067506 -0.2854648,0.1427323 -0.016822,0.016822 0,0.047577 0,0.071366 0,0.023789 0,0.047578 0,0.071366"
       id="path63"
       inkscape:connector-curvature="0" />
    <path
       style="fill:none;stroke:#000000;stroke-width:0.26458332px;stroke-linecap:butt;stroke-linejoin:miter;stroke-opacity:1"
       d="m 19.839801,6.5886731 c 0,0.3148883 -0.03268,0.5556936 0.142732,0.8563944 0.08476,0.1452977 0.231108,0.2450771 0.356831,0.3568308 0.0889,0.079022 0.176139,0.1672444 0.285465,0.2140987 0.0656,0.028112 0.142732,0 0.214099,0 0.142732,0 0.285465,0 0.428197,0 0.166521,0 0.333042,0 0.499563,0 0.09516,0 0.200356,0.042554 0.285465,0 0.381854,-0.190927 0.356831,-0.5744572 0.356831,-0.9277606 0,-0.047577 0.0078,-0.095802 0,-0.1427324 -0.01612,-0.096749 -0.05213,-0.1892859 -0.07137,-0.2854648 -0.0047,-0.023326 0.01682,-0.054545 0,-0.071366 -0.06065,-0.06065 -0.144304,-0.092879 -0.214099,-0.1427324 -0.09679,-0.069135 -0.175028,-0.1699241 -0.285465,-0.2140987 -0.134351,-0.05374 -0.286306,-0.042988 -0.428197,-0.071366 -0.09618,-0.019235 -0.187868,-0.061607 -0.285464,-0.071366 -0.142024,-0.014203 -0.287407,0.023466 -0.428198,0 C 20.025179,5.9772737 20.474809,5.9463773 20.125266,5.9463773"
       id="path65"
       inkscape:connector-curvature="0" />
  </g>
</svg>
